Coordinates
version=1
nRows=24
nColumns=22
inDegrees=yes

Units are S.I. units (second, meters, Newtons, ...)
If the header above contains a line with 'inDegrees', this indicates whether rotational values are in degrees (yes) or radians (no).

endheader
time	pelvis_tilt	pelvis_list	pelvis_rotation	pelvis_tx	pelvis_ty	pelvis_tz	hip_flexion_r	hip_adduction_r	hip_rotation_r	knee_angle_r	ankle_angle_r	subtalar_angle_r	hip_flexion_l	hip_adduction_l	hip_rotation_l	knee_angle_l	ankle_angle_l	subtalar_angle_l	lumbar_extension	lumbar_bending	lumbar_rotation
      4.71000000	      2.31529014	      0.84875517	   -181.70690456	     -0.30161867	      0.84632983	     -0.31129847	     34.08125787	     -3.94176745	      0.68901837	     -6.28420862	      2.47759481	      8.00682891	    -12.17025107	     -0.73063679	      4.23262696	    -15.21001689	     26.46538569	      1.94954309	     -5.44356305	      1.29735269	     -3.53459364
      4.72000000	      2.53617737	      0.52786420	   -181.22717753	     -0.31192695	      0.84339795	     -0.31235120	     33.94738854	     -4.34688740	     -0.35004749	     -5.74672354	      2.72620949	      8.10763601	    -12.60188563	     -0.64003902	      4.67234565	    -15.28113190	     26.53384510	      2.31500305	     -4.99131768	      1.04591178	     -3.79194966
      4.73000000	      2.76997418	      0.25635748	   -180.73809439	     -0.32249764	      0.84051536	     -0.31353055	     33.80099930	     -4.70080204	     -1.43102881	     -5.45175370	      2.90540511	      8.20627573	    -13.01901568	     -0.62689142	      5.11806625	    -15.39612631	     26.56708461	      2.84405696	     -4.51112216	      0.83973577	     -4.01540030
      4.74000000	      3.03369198	      0.00330779	   -180.25175550	     -0.33330362	      0.83770422	     -0.31481567	     33.69047180	     -5.03269769	     -2.50476190	     -5.41350387	      2.84276315	      8.17841690	    -13.43803632	     -0.64913279	      5.60263382	    -15.47114769	     26.48158134	      3.27572536	     -3.98327664	      0.64842862	     -4.23795055
      4.75000000	      3.31456621	     -0.19542817	   -179.77703010	     -0.34429481	      0.83499775	     -0.31622857	     33.58778539	     -5.30774325	     -3.52627819	     -5.56301647	      2.51016105	      8.07804024	    -13.83655580	     -0.73996079	      6.11432055	    -15.57644291	     26.32551395	      3.64998915	     -3.42952453	      0.51163782	     -4.42073006
      4.76000000	      3.62177853	     -0.32379933	   -179.33803542	     -0.35543032	      0.83245045	     -0.31778331	     33.50245032	     -5.50132577	     -4.43343626	     -5.83139062	      1.76794360	      7.95165842	    -14.20935051	     -0.90634585	      6.64761987	    -15.69358868	     26.04274573	      3.93500973	     -2.84125694	      0.45082396	     -4.53319776
      4.77000000	      3.90892246	     -0.33879744	   -178.91939138	     -0.36655959	      0.83015545	     -0.31946001	     33.43965329	     -5.58373151	     -5.28257898	     -6.25535777	      0.57109764	      7.67816426	    -14.53300423	     -1.19658834	      7.13115608	    -15.93790117	     25.76837957	      4.36806893	     -2.29357733	      0.51820702	     -4.61359657
      4.78000000	      4.19099020	     -0.22142668	   -178.60652995	     -0.37770477	      0.82818520	     -0.32139506	     33.41146567	     -5.48172191	     -5.90857128	     -6.75041483	     -1.07933697	      7.16315336	    -14.84807992	     -1.61013725	      7.54444275	    -16.20630658	     25.31136098	      4.90549543	     -1.76115865	      0.73588808	     -4.56165142
      4.79000000	      4.43667900	      0.02156189	   -178.35346976	     -0.38871505	      0.82664195	     -0.32344057	     33.40660462	     -5.23576386	     -6.38596700	     -7.32219395	     -3.08173212	      6.63377507	    -15.10934792	     -2.13155408	      7.92188342	    -16.62165024	     24.78871965	      5.23519908	     -1.30226544	      1.10767108	     -4.43625434
      4.80000000	      4.62594234	      0.40062343	   -178.23016743	     -0.39964509	      0.82559832	     -0.32572831	     33.44738098	     -4.78485691	     -6.63918003	     -8.05014071	     -5.15866995	      5.66274472	    -15.39453399	     -2.76475819	      8.19295200	    -17.08360845	     24.06451085	      5.68770760	     -0.93185109	      1.64678241	     -4.19735280
      4.81000000	      4.75005700	      0.88103276	   -178.22143500	     -0.41036939	      0.82509237	     -0.32817216	     33.52870212	     -4.17121580	     -6.68355217	     -8.94655202	     -7.11715734	      4.41925596	    -15.65513718	     -3.46077980	      8.37740644	    -17.68951557	     23.21945067	      6.10225694	     -0.68280617	      2.31766646	     -3.85521848
      4.82000000	      4.80642183	      1.47072749	   -178.34473418	     -0.42092233	      0.82515108	     -0.33078262	     33.64575279	     -3.37371142	     -6.56951502	    -10.04524993	     -8.70473284	      2.91190527	    -15.90084326	     -4.22353168	      8.42478569	    -18.43249770	     22.21787156	      6.50937221	     -0.55768798	      3.13105532	     -3.39449800
      4.83000000	      4.82127566	      2.11117866	   -178.59800276	     -0.43132603	      0.82575903	     -0.33353849	     33.80633984	     -2.44465632	     -6.28767353	    -11.33632730	     -9.77365921	      1.18014924	    -16.13296305	     -4.98869023	      8.37946301	    -19.25486075	     20.98125317	      6.94687238	     -0.52460084	      4.01745908	     -2.87168392
      4.84000000	      4.80177660	      2.76410237	   -178.97476141	     -0.44155874	      0.82689746	     -0.33641045	     33.97887390	     -1.42709266	     -5.88266757	    -12.76412307	    -10.28635990	     -0.53307917	    -16.31863626	     -5.71305471	      8.23302948	    -20.20030914	     19.52678495	      7.40153375	     -0.58370135	      4.92578546	     -2.25721128
      4.85000000	      4.76381547	      3.37658944	   -179.44096066	     -0.45163573	      0.82853128	     -0.33934275	     34.12946193	     -0.39553955	     -5.38558865	    -14.25311088	    -10.27883248	     -2.04732100	    -16.43654572	     -6.34941296	      8.03047936	    -21.25566750	     17.82033822	      7.89462349	     -0.71196294	      5.78842133	     -1.61129596
      4.86000000	      4.72166948	      3.90684558	   -179.96015965	     -0.46155936	      0.83061141	     -0.34228207	     34.20679945	      0.58458177	     -4.83683939	    -15.67824774	     -9.87658969	     -3.22928529	    -16.45014624	     -6.86399544	      7.81350583	    -22.43194528	     15.85983377	      8.44718647	     -0.88568108	      6.54964847	     -0.95976348
      4.87000000	      4.68578254	      4.32032028	   -180.49174492	     -0.47132756	      0.83306810	     -0.34519423	     34.17917991	      1.45432686	     -4.26861957	    -16.94993222	     -9.22437240	     -4.04550634	    -16.32766340	     -7.23855188	      7.61065333	    -23.72940241	     13.65658718	      9.08308017	     -1.08020463	      7.16215124	     -0.37324256
      4.88000000	      4.65990447	      4.58800970	   -181.00063259	     -0.48091765	      0.83582201	     -0.34803948	     34.02065336	      2.16373791	     -3.71933679	    -17.99136618	     -8.43640465	     -4.55575114	    -16.03457378	     -7.45714928	      7.45134643	    -25.16921563	     11.25037364	      9.82842115	     -1.27949509	      7.58653196	      0.13346288
      4.89000000	      4.64934839	      4.69850565	   -181.44752556	     -0.49031087	      0.83876232	     -0.35078523	     33.74086988	      2.68053760	     -3.23224074	    -18.78831676	     -7.59383413	     -4.87937218	    -15.54294707	     -7.52647129	      7.36408988	    -26.76105991	      8.72172263	     10.72825398	     -1.46378561	      7.80669307	      0.51951620
      4.90000000	      4.65615312	      4.64422901	   -181.80721030	     -0.49946589	      0.84177579	     -0.35341045	     33.36420682	      2.98708658	     -2.81930558	    -19.35785128	     -6.74565589	     -5.10591767	    -14.83547861	     -7.45046512	      7.36659284	    -28.51176997	      6.17106244	     11.77019610	     -1.62119757	      7.81057612	      0.77445561
      4.91000000	      4.68057298	      4.42881894	   -182.05930002	     -0.50834435	      0.84475412	     -0.35587834	     32.92872424	      3.07800910	     -2.49278941	    -19.74781985	     -5.91948130	     -5.32104071	    -13.90476554	     -7.23923058	      7.46344589	    -30.42524966	      3.70877485	     12.91462257	     -1.74628231	      7.60586926	      0.88729351
      4.92000000	      4.71336103	      4.04664387	   -182.18106034	     -0.51687483	      0.84761478	     -0.35813053	     32.47555248	      2.93467250	     -2.26859415	    -20.03475207	     -5.14043855	     -5.55721803	    -12.75358214	     -6.88572267	      7.67039503	    -32.50345534	      1.44833221	     13.98774935	     -1.85183489	      7.18889046	      0.84013365
      4.93000000	      4.78695970	      3.66391154	   -182.18810742	     -0.52510383	      0.85023349	     -0.36025448	     32.00732330	      2.73308085	     -2.19579151	    -20.17032543	     -4.39412570	     -5.90889373	    -11.36837301	     -6.59322047	      7.83509619	    -34.76231441	     -0.45739423	     15.32878933	     -1.90124542	      6.75060344	      0.69703902
      4.94000000	      4.87902758	      3.21306792	   -182.08665819	     -0.53292499	      0.85258880	     -0.36218661	     31.57517457	      2.40538600	     -2.22197799	    -20.27879980	     -3.66501264	     -6.28709678	     -9.77987457	     -6.26932829	      7.98451287	    -37.16708504	     -1.96610539	     16.39001660	     -1.93290873	      6.21940857	      0.44929776
